<?xml version="1.0" encoding="utf-8"?>
<!-- Generator: Adobe Illustrator 25.2.1, SVG Export Plug-In . SVG Version: 6.00 Build 0)  -->
<svg version="1.1" xmlns="http://www.w3.org/2000/svg" xmlns:xlink="http://www.w3.org/1999/xlink" x="0px" y="0px"
	 viewBox="0 0 1000 1000" style="enable-background:new 0 0 1000 1000;" xml:space="preserve">
<style type="text/css">
	.st0{fill:#E2E2E2;stroke:#000000;stroke-miterlimit:10;}
</style>
<g id="Layer_2">
	<rect x="42.5" y="48.5" class="st0" width="915" height="903"/>
</g>
<g id="discord">
	<path d="M75,0L75,0C33,0,0,33,0,75v850c0,42,33,75,75,75h850c42,0,75-33,75-75V75c0-42-33-75-75-75H75 M386,203c1,0,2,0,2,0l7,9
		c-128,36-186,92-186,92s15-8,41-20c76-34,136-43,161-45c4-1,8-1,12-1c43-6,92-7,143-2c67,8,139,28,213,68c0,0-56-53-176-90l9-11
		c0,0,97-2,199,74c0,0,102,185,102,412c0,0-60,103-216,108c0,0-26-30-47-57c93-26,128-84,128-84c-29,19-57,32-81,41
		c-36,15-70,25-103,31c-68,12-130,9-183-1c-40-8-75-19-104-30c-16-7-34-15-52-24c-2-2-4-3-6-4c-1-1-2-1-3-2c-13-7-20-12-20-12
		s34,56,124,83c-21,27-47,59-47,59C146,792,87,689,87,689c0-227,102-412,102-412C284,206,375,203,386,203L386,203 M368,467
		c-41,0-72,35-72,78s32,79,72,79s72-36,72-79C441,502,408,467,368,467L368,467 M626,467c-40,0-72,35-72,78s32,79,72,79s72-36,72-79
		S666,467,626,467L626,467"/>
</g>
</svg>
