<?xml version="1.0" encoding="utf-8"?>
<!-- Generator: Adobe Illustrator 24.2.3, SVG Export Plug-In . SVG Version: 6.00 Build 0)  -->
<svg version="1.1" id="Layer_1" xmlns="http://www.w3.org/2000/svg" xmlns:xlink="http://www.w3.org/1999/xlink" x="0px" y="0px"
	 viewBox="0 0 100.1 100" style="enable-background:new 0 0 100.1 100;" xml:space="preserve">
<style type="text/css">
	.st0{fill:url(#SVGID_1_);}
	.st1{opacity:0.9;}
	.st2{enable-background:new    ;}
	.st3{fill:#007A82;}
	.st4{clip-path:url(#SVGID_3_);enable-background:new    ;}
	.st5{fill:#009DA9;}
	.st6{fill:#009CA7;}
	.st7{fill:#009AA5;}
	.st8{fill:#0098A3;}
	.st9{fill:#0097A1;}
	.st10{fill:#0095A0;}
	.st11{fill:#00939E;}
	.st12{fill:#00929C;}
	.st13{fill:#00909A;}
	.st14{fill:#008E98;}
	.st15{fill:#008D97;}
	.st16{fill:#008B95;}
	.st17{fill:#008993;}
	.st18{fill:#008891;}
	.st19{fill:#008690;}
	.st20{fill:#00848E;}
	.st21{fill:#00838C;}
	.st22{fill:#00818A;}
	.st23{fill:#007F88;}
	.st24{fill:#007E87;}
	.st25{fill:#007C85;}
	.st26{fill:#007A83;}
	.st27{fill:#007981;}
	.st28{clip-path:url(#SVGID_5_);enable-background:new    ;}
	.st29{clip-path:url(#SVGID_7_);enable-background:new    ;}
	.st30{clip-path:url(#SVGID_9_);enable-background:new    ;}
	.st31{clip-path:url(#SVGID_11_);enable-background:new    ;}
	.st32{fill:#00D0DF;}
	.st33{clip-path:url(#SVGID_13_);enable-background:new    ;}
	.st34{clip-path:url(#SVGID_15_);enable-background:new    ;}
	.st35{clip-path:url(#SVGID_17_);enable-background:new    ;}
	.st36{fill:#00A8B4;}
	.st37{clip-path:url(#SVGID_19_);enable-background:new    ;}
	.st38{clip-path:url(#SVGID_21_);enable-background:new    ;}
	.st39{clip-path:url(#SVGID_23_);enable-background:new    ;}
	.st40{clip-path:url(#SVGID_25_);enable-background:new    ;}
	.st41{clip-path:url(#SVGID_27_);enable-background:new    ;}
	.st42{clip-path:url(#SVGID_29_);enable-background:new    ;}
	.st43{fill:#00858E;}
	.st44{clip-path:url(#SVGID_31_);enable-background:new    ;}
	.st45{clip-path:url(#SVGID_33_);enable-background:new    ;}
	.st46{fill:#007780;}
	.st47{clip-path:url(#SVGID_35_);enable-background:new    ;}
	.st48{clip-path:url(#SVGID_37_);enable-background:new    ;}
	.st49{clip-path:url(#SVGID_39_);enable-background:new    ;}
</style>
<g>
	
		<radialGradient id="SVGID_1_" cx="32" cy="32" r="55.0616" gradientTransform="matrix(1.564 0 0 1.5625 0 0)" gradientUnits="userSpaceOnUse">
		<stop  offset="0" style="stop-color:#656565"/>
		<stop  offset="1" style="stop-color:#000000"/>
	</radialGradient>
	<path class="st0" d="M93.2,100H6.9C3.1,100,0,96.9,0,93.1V6.9C0,3.1,3.1,0,6.9,0h86.2c3.8,0,6.9,3.1,6.9,6.9v86.1
		C100.1,96.9,97,100,93.2,100z"/>
</g>
<g class="st1">
	<g>
		<g class="st2">
			<g>
				<polygon class="st3" points="29.7,33.6 26.5,31.9 26.5,24.6 29.7,26.3 				"/>
			</g>
			<g class="st2">
				<defs>
					<path id="SVGID_2_" class="st2" d="M13.5,48.4l-3.2-1.7c1.6-0.1,3.2-0.3,5.6-0.7c6-0.8,10.6-4.4,10.7-14.1l3.2,1.7
						c0,9.7-4.6,13.2-10.7,14.1C16.7,48,15.1,48.2,13.5,48.4z"/>
				</defs>
				<clipPath id="SVGID_3_">
					<use xlink:href="#SVGID_2_"  style="overflow:visible;"/>
				</clipPath>
				<g class="st4">
					<path class="st5" d="M13.5,48.4l-3.2-1.7c1.6-0.1,3.2-0.3,5.6-0.7c0.5-0.1,1-0.2,1.5-0.3l3.2,1.7c-0.5,0.1-1,0.2-1.5,0.3
						C16.7,48,15.1,48.2,13.5,48.4"/>
					<path class="st6" d="M20.5,47.4l-3.2-1.7c0.6-0.1,1.2-0.3,1.8-0.5l3.2,1.7C21.7,47.1,21.1,47.3,20.5,47.4"/>
					<path class="st7" d="M22.3,46.9l-3.2-1.7c0.3-0.1,0.6-0.2,0.9-0.4l3.2,1.7C22.9,46.6,22.6,46.8,22.3,46.9"/>
					<path class="st8" d="M23.2,46.5L20,44.7c0.2-0.1,0.4-0.2,0.6-0.3l3.2,1.7C23.7,46.3,23.5,46.4,23.2,46.5"/>
					<path class="st9" d="M23.9,46.2l-3.2-1.7c0.2-0.1,0.3-0.2,0.5-0.3l3.2,1.7C24.2,46,24,46.1,23.9,46.2"/>
					<path class="st10" d="M24.4,45.9l-3.2-1.7c0.1-0.1,0.3-0.2,0.4-0.3l3.2,1.7C24.7,45.7,24.5,45.8,24.4,45.9"/>
					<path class="st11" d="M24.8,45.6l-3.2-1.7c0.1-0.1,0.3-0.2,0.4-0.3l3.2,1.7C25.1,45.4,24.9,45.5,24.8,45.6"/>
					<path class="st12" d="M25.2,45.3L22,43.6c0.1-0.1,0.2-0.2,0.3-0.3l3.2,1.7C25.4,45.1,25.3,45.2,25.2,45.3"/>
					<path class="st13" d="M25.5,45l-3.2-1.7c0.1-0.1,0.2-0.2,0.3-0.3l3.2,1.7C25.7,44.8,25.6,44.9,25.5,45"/>
					<path class="st14" d="M25.8,44.8L22.6,43c0.1-0.1,0.2-0.2,0.3-0.3l3.2,1.7C26,44.6,25.9,44.7,25.8,44.8"/>
					<path class="st15" d="M26.1,44.5l-3.2-1.7c0.1-0.1,0.2-0.2,0.3-0.3l3.2,1.7C26.3,44.3,26.2,44.4,26.1,44.5"/>
					<path class="st16" d="M26.4,44.2l-3.2-1.7c0.1-0.1,0.2-0.2,0.3-0.3l3.2,1.7C26.6,44,26.5,44.1,26.4,44.2"/>
					<path class="st17" d="M26.6,43.9l-3.2-1.7c0.1-0.1,0.2-0.2,0.2-0.3l3.2,1.7C26.8,43.7,26.7,43.8,26.6,43.9"/>
					<path class="st18" d="M26.9,43.6l-3.2-1.7c0.1-0.1,0.2-0.2,0.2-0.3l3.2,1.7C27.1,43.4,27,43.5,26.9,43.6"/>
					<path class="st19" d="M27.1,43.3l-3.2-1.7c0.1-0.1,0.2-0.2,0.2-0.3l3.2,1.7C27.3,43.1,27.2,43.2,27.1,43.3"/>
					<path class="st20" d="M27.4,43l-3.2-1.7c0.1-0.1,0.2-0.2,0.2-0.4l3.2,1.7C27.5,42.7,27.4,42.8,27.4,43"/>
					<path class="st21" d="M27.6,42.6l-3.2-1.7c0.1-0.1,0.2-0.3,0.2-0.4l3.2,1.7C27.8,42.3,27.7,42.5,27.6,42.6"/>
					<path class="st22" d="M27.8,42.2l-3.2-1.7c0.1-0.1,0.2-0.3,0.2-0.4l3.2,1.7C28,41.9,27.9,42,27.8,42.2"/>
					<path class="st23" d="M28.1,41.7L24.9,40c0.1-0.2,0.2-0.4,0.3-0.5l3.2,1.7C28.2,41.4,28.2,41.6,28.1,41.7"/>
					<path class="st24" d="M28.3,41.2l-3.2-1.7c0.1-0.2,0.2-0.4,0.3-0.6l3.2,1.7C28.5,40.8,28.4,41,28.3,41.2"/>
					<path class="st25" d="M28.6,40.6l-3.2-1.7c0.1-0.3,0.2-0.5,0.3-0.8l3.2,1.7C28.8,40,28.7,40.3,28.6,40.6"/>
					<path class="st26" d="M28.9,39.8L25.7,38c0.1-0.4,0.2-0.8,0.3-1.3l3.2,1.7C29.1,38.9,29,39.4,28.9,39.8"/>
					<path class="st27" d="M29.2,38.5L26,36.8c0.3-1.4,0.5-3.1,0.5-4.9l3.2,1.7C29.7,35.5,29.5,37.1,29.2,38.5"/>
				</g>
			</g>
			<g class="st2">
				<defs>
					<path id="SVGID_4_" class="st2" d="M9.3,52.5l-3.2-1.7c-0.3-0.2-0.5-0.5-0.5-1.1l3.2,1.7C8.8,52,9,52.3,9.3,52.5z"/>
				</defs>
				<clipPath id="SVGID_5_">
					<use xlink:href="#SVGID_4_"  style="overflow:visible;"/>
				</clipPath>
				<g class="st28">
					<path class="st27" d="M9.3,52.5l-3.2-1.7c-0.3-0.2-0.5-0.5-0.5-1.1l3.2,1.7C8.8,52,9,52.3,9.3,52.5"/>
				</g>
			</g>
			<g class="st2">
				<defs>
					<path id="SVGID_6_" class="st2" d="M22.3,14.2l3.2,1.7c2.6,1.4,4.2,4.5,4.2,10.3l-3.2-1.7C26.5,18.8,24.9,15.6,22.3,14.2z"/>
				</defs>
				<clipPath id="SVGID_7_">
					<use xlink:href="#SVGID_6_"  style="overflow:visible;"/>
				</clipPath>
				<g class="st29">
					<path class="st27" d="M29.7,26.3l-3.2-1.7c0-5.8-1.6-8.9-4.2-10.3l3.2,1.7C28.1,17.4,29.7,20.5,29.7,26.3"/>
				</g>
			</g>
			<g class="st2">
				<defs>
					<path id="SVGID_8_" class="st2" d="M25.1,10.4l3.2,1.7c-2.5-1.3-5.6-1.7-9.2-1.2l-3.2-1.7C19.6,8.7,22.7,9.1,25.1,10.4z"/>
				</defs>
				<clipPath id="SVGID_9_">
					<use xlink:href="#SVGID_8_"  style="overflow:visible;"/>
				</clipPath>
				<g class="st30">
					<path class="st5" d="M19.1,11l-3.2-1.7C17,9.1,18.1,9,19.1,9l3.2,1.7C21.3,10.8,20.2,10.8,19.1,11"/>
					<path class="st6" d="M22.3,10.8L19.1,9c0.8,0,1.6,0.1,2.3,0.2l3.2,1.7C23.9,10.8,23.1,10.8,22.3,10.8"/>
					<path class="st7" d="M24.6,11l-3.2-1.7c0.4,0.1,0.8,0.1,1.2,0.2l3.2,1.7C25.4,11.1,25,11,24.6,11"/>
					<path class="st8" d="M25.8,11.2l-3.2-1.7c0.3,0.1,0.6,0.2,0.9,0.3l3.2,1.7C26.4,11.4,26.1,11.3,25.8,11.2"/>
					<path class="st9" d="M26.7,11.5l-3.2-1.7c0.2,0.1,0.5,0.2,0.7,0.3l3.2,1.7C27.2,11.6,27,11.6,26.7,11.5"/>
					<path class="st10" d="M27.4,11.7L24.3,10c0.2,0.1,0.4,0.2,0.6,0.3L28,12C27.8,11.9,27.6,11.8,27.4,11.7"/>
					<path class="st11" d="M28,12l-3.2-1.7c0.1,0.1,0.2,0.1,0.3,0.2l3.2,1.7C28.2,12.1,28.1,12.1,28,12"/>
				</g>
			</g>
			<g>
				<polygon class="st3" points="8.8,51.4 5.7,49.7 5.7,12.6 8.9,14.3 				"/>
			</g>
			<g class="st2">
				<defs>
					<path id="SVGID_10_" class="st2" d="M8.9,14.3l-3.2-1.7c0-0.8,0.4-1.3,1.1-1.5c1.5-0.5,5.3-1.3,9.1-1.8l3.2,1.7
						c-3.8,0.5-7.7,1.3-9.1,1.8C9.3,13,8.9,13.6,8.9,14.3z"/>
				</defs>
				<clipPath id="SVGID_11_">
					<use xlink:href="#SVGID_10_"  style="overflow:visible;"/>
				</clipPath>
				<g class="st31">
					<path class="st27" d="M8.9,14.3l-3.2-1.7c0-0.1,0-0.3,0-0.4L9,13.9C8.9,14,8.9,14.2,8.9,14.3"/>
					<path class="st26" d="M9,13.9l-3.2-1.7c0,0,0-0.1,0-0.1L9,13.8C9,13.8,9,13.9,9,13.9"/>
					<path class="st25" d="M9,13.8L5.8,12c0,0,0-0.1,0-0.1L9,13.8C9,13.7,9,13.7,9,13.8"/>
					<path class="st24" d="M9,13.7L5.8,12c0,0,0-0.1,0-0.1L9,13.7C9,13.6,9,13.7,9,13.7"/>
					<path class="st23" d="M9.1,13.6l-3.2-1.7c0,0,0,0,0-0.1L9.1,13.6C9.1,13.6,9.1,13.6,9.1,13.6"/>
					<path class="st22" d="M9.1,13.5l-3.2-1.7c0,0,0,0,0-0.1L9.1,13.5C9.1,13.5,9.1,13.5,9.1,13.5"/>
					<path class="st21" d="M9.1,13.5l-3.2-1.7c0,0,0,0,0-0.1L9.1,13.5C9.1,13.5,9.1,13.5,9.1,13.5"/>
					<path class="st20" d="M9.1,13.4l-3.2-1.7c0,0,0,0,0,0L9.1,13.4C9.2,13.4,9.2,13.4,9.1,13.4"/>
					<path class="st19" d="M9.2,13.4L6,11.7c0,0,0,0,0,0L9.2,13.4C9.2,13.4,9.2,13.4,9.2,13.4"/>
					<path class="st18" d="M9.2,13.3L6,11.6c0,0,0,0,0,0L9.2,13.3C9.2,13.3,9.2,13.3,9.2,13.3"/>
					<path class="st17" d="M9.2,13.3L6,11.6c0,0,0,0,0,0L9.2,13.3C9.3,13.3,9.2,13.3,9.2,13.3"/>
					<path class="st16" d="M9.3,13.3l-3.2-1.7c0,0,0,0,0,0L9.3,13.3C9.3,13.2,9.3,13.2,9.3,13.3"/>
					<path class="st15" d="M9.3,13.2l-3.2-1.7c0,0,0,0,0,0L9.3,13.2C9.3,13.2,9.3,13.2,9.3,13.2"/>
					<path class="st14" d="M9.3,13.2l-3.2-1.7c0,0,0,0,0,0L9.3,13.2C9.4,13.2,9.4,13.2,9.3,13.2"/>
					<path class="st13" d="M9.4,13.1l-3.2-1.7c0,0,0,0,0,0L9.4,13.1C9.4,13.1,9.4,13.1,9.4,13.1"/>
					<path class="st12" d="M9.4,13.1l-3.2-1.7c0,0,0,0,0,0L9.4,13.1C9.5,13.1,9.4,13.1,9.4,13.1"/>
					<path class="st11" d="M9.5,13.1l-3.2-1.7c0,0,0,0,0.1,0L9.5,13.1C9.5,13,9.5,13.1,9.5,13.1"/>
					<path class="st10" d="M9.5,13l-3.2-1.7c0,0,0,0,0.1,0L9.5,13C9.6,13,9.5,13,9.5,13"/>
					<path class="st9" d="M9.6,13l-3.2-1.7c0,0,0,0,0.1,0L9.6,13C9.6,13,9.6,13,9.6,13"/>
					<path class="st8" d="M9.7,12.9l-3.2-1.7c0,0,0.1,0,0.1,0L9.7,12.9C9.7,12.9,9.7,12.9,9.7,12.9"/>
					<path class="st7" d="M9.8,12.9l-3.2-1.7c0,0,0.1,0,0.1-0.1l3.2,1.7C9.8,12.9,9.8,12.9,9.8,12.9"/>
					<path class="st6" d="M9.9,12.8l-3.2-1.7c0,0,0.1,0,0.1,0c0.4-0.1,1-0.3,1.8-0.5l3.2,1.7C11,12.5,10.4,12.7,9.9,12.8
						C9.9,12.8,9.9,12.8,9.9,12.8"/>
					<path class="st5" d="M11.8,12.3l-3.2-1.7c1.9-0.4,4.6-1,7.3-1.3l3.2,1.7C16.4,11.4,13.7,11.9,11.8,12.3"/>
				</g>
			</g>
			<g>
				<path class="st32" d="M19.1,11c9.3-1.3,15.2,3,15.2,14.7l0,7.3c0,11.6-5.9,17.6-15.2,18.9c-3.8,0.5-7.7,0.8-9.1,0.7
					c-0.7,0-1.1-0.4-1.1-1.2l0.1-37.1c0-0.8,0.4-1.3,1.1-1.5C11.4,12.3,15.3,11.5,19.1,11z M29.7,33.6l0-7.3
					c0-9.8-4.6-11.9-10.6-11.1c-2.4,0.3-3.9,0.6-5.6,0.9l-0.1,32.2c1.6-0.1,3.2-0.3,5.6-0.7C25,46.8,29.7,43.3,29.7,33.6"/>
			</g>
		</g>
	</g>
</g>
<g class="st1">
	<g>
		<g class="st2">
			<g class="st2">
				<defs>
					<path id="SVGID_12_" class="st2" d="M51.8,72.1l-3.2-1.7c-0.3-0.1-0.5-0.5-0.5-0.9l3.2,1.7C51.4,71.6,51.6,72,51.8,72.1z"/>
				</defs>
				<clipPath id="SVGID_13_">
					<use xlink:href="#SVGID_12_"  style="overflow:visible;"/>
				</clipPath>
				<g class="st33">
					<path class="st27" d="M51.8,72.1l-3.2-1.7c-0.3-0.1-0.5-0.5-0.5-0.9l3.2,1.7C51.4,71.6,51.6,72,51.8,72.1"/>
				</g>
			</g>
			<g class="st2">
				<defs>
					<path id="SVGID_14_" class="st2" d="M63.1,28.5l3.2,1.7c-0.2-0.1-0.3-0.1-0.6-0.1l-3.2-1.7C62.8,28.4,63,28.4,63.1,28.5z"/>
				</defs>
				<clipPath id="SVGID_15_">
					<use xlink:href="#SVGID_14_"  style="overflow:visible;"/>
				</clipPath>
				<g class="st34">
					<path class="st5" d="M65.8,30.2l-3.2-1.7c0.1,0,0.1,0,0.2,0l3.2,1.7C65.9,30.1,65.8,30.2,65.8,30.2"/>
					<path class="st6" d="M66,30.1l-3.2-1.7c0,0,0.1,0,0.1,0l3.2,1.7C66,30.2,66,30.1,66,30.1"/>
					<path class="st7" d="M66.1,30.2l-3.2-1.7c0,0,0.1,0,0.1,0L66.1,30.2C66.1,30.2,66.1,30.2,66.1,30.2"/>
					<path class="st8" d="M66.2,30.2L63,28.4c0,0,0,0,0.1,0L66.2,30.2C66.2,30.2,66.2,30.2,66.2,30.2"/>
					<path class="st9" d="M66.2,30.2L63,28.5c0,0,0,0,0,0L66.2,30.2C66.3,30.2,66.2,30.2,66.2,30.2"/>
					<path class="st10" d="M66.3,30.2l-3.2-1.7c0,0,0,0,0,0L66.3,30.2C66.3,30.2,66.3,30.2,66.3,30.2"/>
					<path class="st11" d="M66.3,30.2l-3.2-1.7c0,0,0,0,0,0L66.3,30.2C66.3,30.2,66.3,30.2,66.3,30.2"/>
				</g>
			</g>
			<g>
				<polygon class="st3" points="51.4,71.2 48.2,69.5 48.2,34.7 51.4,36.4 				"/>
			</g>
			<g class="st2">
				<defs>
					<path id="SVGID_16_" class="st2" d="M41,37.7l-3.2-1.7c-0.2-0.1-0.3-0.3-0.3-0.6l3.2,1.7C40.7,37.4,40.8,37.6,41,37.7z"/>
				</defs>
				<clipPath id="SVGID_17_">
					<use xlink:href="#SVGID_16_"  style="overflow:visible;"/>
				</clipPath>
				<g class="st35">
					<path class="st27" d="M41,37.7l-3.2-1.7c-0.2-0.1-0.3-0.3-0.3-0.6l3.2,1.7C40.7,37.4,40.8,37.6,41,37.7"/>
				</g>
			</g>
			<g>
				<polygon class="st36" points="41.7,33.5 38.5,31.8 62.6,28.4 65.8,30.2 				"/>
			</g>
			<g>
				<polygon class="st3" points="40.7,37 37.5,35.3 37.5,32.9 40.7,34.7 				"/>
			</g>
			<g class="st2">
				<defs>
					<path id="SVGID_18_" class="st2" d="M40.7,34.7l-3.2-1.7c0-0.5,0.5-1,1-1.1l3.2,1.7C41.1,33.6,40.7,34.1,40.7,34.7z"/>
				</defs>
				<clipPath id="SVGID_19_">
					<use xlink:href="#SVGID_18_"  style="overflow:visible;"/>
				</clipPath>
				<g class="st37">
					<path class="st27" d="M40.7,34.7l-3.2-1.7c0-0.1,0-0.1,0-0.2l3.2,1.7C40.7,34.5,40.7,34.6,40.7,34.7"/>
					<path class="st26" d="M40.7,34.5l-3.2-1.7c0,0,0-0.1,0-0.1L40.7,34.5C40.7,34.4,40.7,34.4,40.7,34.5"/>
					<path class="st25" d="M40.7,34.4l-3.2-1.7c0,0,0,0,0-0.1L40.7,34.4C40.7,34.3,40.7,34.3,40.7,34.4"/>
					<path class="st24" d="M40.7,34.3l-3.2-1.7c0,0,0,0,0-0.1L40.7,34.3C40.8,34.3,40.7,34.3,40.7,34.3"/>
					<path class="st23" d="M40.8,34.3l-3.2-1.7c0,0,0,0,0,0L40.8,34.3C40.8,34.2,40.8,34.2,40.8,34.3"/>
					<path class="st22" d="M40.8,34.2l-3.2-1.7c0,0,0,0,0,0L40.8,34.2C40.8,34.2,40.8,34.2,40.8,34.2"/>
					<path class="st21" d="M40.8,34.2l-3.2-1.7c0,0,0,0,0,0L40.8,34.2C40.8,34.1,40.8,34.1,40.8,34.2"/>
					<path class="st20" d="M40.8,34.1l-3.2-1.7c0,0,0,0,0,0L40.8,34.1C40.9,34.1,40.8,34.1,40.8,34.1"/>
					<path class="st19" d="M40.9,34.1l-3.2-1.7c0,0,0,0,0,0L40.9,34.1C40.9,34,40.9,34.1,40.9,34.1"/>
					<path class="st18" d="M40.9,34l-3.2-1.7c0,0,0,0,0,0L40.9,34C40.9,34,40.9,34,40.9,34"/>
					<path class="st17" d="M40.9,34l-3.2-1.7c0,0,0,0,0,0L40.9,34C40.9,34,40.9,34,40.9,34"/>
					<path class="st16" d="M40.9,34l-3.2-1.7c0,0,0,0,0,0L40.9,34C41,33.9,41,33.9,40.9,34"/>
					<path class="st15" d="M41,33.9l-3.2-1.7c0,0,0,0,0,0L41,33.9C41,33.9,41,33.9,41,33.9"/>
					<path class="st14" d="M41,33.9l-3.2-1.7c0,0,0,0,0,0L41,33.9C41,33.9,41,33.9,41,33.9"/>
					<path class="st13" d="M41,33.9l-3.2-1.7c0,0,0,0,0,0L41,33.9C41.1,33.8,41.1,33.8,41,33.9"/>
					<path class="st12" d="M41.1,33.8l-3.2-1.7c0,0,0,0,0,0L41.1,33.8C41.1,33.8,41.1,33.8,41.1,33.8"/>
					<path class="st11" d="M41.1,33.8L37.9,32c0,0,0,0,0,0L41.1,33.8C41.2,33.8,41.1,33.8,41.1,33.8"/>
					<path class="st10" d="M41.2,33.7L38,32c0,0,0,0,0.1,0L41.2,33.7C41.2,33.7,41.2,33.7,41.2,33.7"/>
					<path class="st9" d="M41.2,33.7L38,32c0,0,0,0,0.1,0L41.2,33.7C41.3,33.7,41.2,33.7,41.2,33.7"/>
					<path class="st8" d="M41.3,33.7l-3.2-1.7c0,0,0,0,0.1,0L41.3,33.7C41.3,33.7,41.3,33.7,41.3,33.7"/>
					<path class="st7" d="M41.4,33.6l-3.2-1.7c0,0,0.1,0,0.1,0L41.4,33.6C41.4,33.6,41.4,33.6,41.4,33.6"/>
					<path class="st6" d="M41.4,33.6l-3.2-1.7c0,0,0.1,0,0.1,0l3.2,1.7C41.5,33.6,41.5,33.6,41.4,33.6"/>
					<path class="st5" d="M41.6,33.6l-3.2-1.7c0,0,0.1,0,0.1,0L41.6,33.6C41.6,33.6,41.6,33.6,41.6,33.6"/>
				</g>
			</g>
			<g>
				<path class="st32" d="M65.8,30.2c0.5-0.1,0.9,0.2,0.9,0.8l0,2.4c0,0.5-0.4,0.9-0.9,1L56,35.8l-0.1,34.8c0,0.5-0.4,1.1-0.9,1.2
					l-2.8,0.4c-0.5,0.1-0.9-0.4-0.9-1l0.1-34.8l-9.8,1.4c-0.5,0.1-1-0.1-1-0.7l0-2.4c0-0.5,0.5-1,1-1.1L65.8,30.2z"/>
			</g>
		</g>
	</g>
</g>
<g class="st1">
	<g>
		<g class="st2">
			<g class="st2">
				<defs>
					<path id="SVGID_20_" class="st2" d="M91.1,89.5l-3.2-1.7c-0.2-0.1-0.4-0.4-0.4-0.7l3.2,1.7C90.7,89.2,90.9,89.4,91.1,89.5z"/>
				</defs>
				<clipPath id="SVGID_21_">
					<use xlink:href="#SVGID_20_"  style="overflow:visible;"/>
				</clipPath>
				<g class="st38">
					<path class="st27" d="M91.1,89.5l-3.2-1.7c-0.2-0.1-0.4-0.4-0.4-0.7l3.2,1.7C90.7,89.2,90.9,89.4,91.1,89.5"/>
				</g>
			</g>
			<g>
				<polygon class="st3" points="90.7,88.8 87.5,87.1 87.6,53.1 90.8,54.9 				"/>
			</g>
			<g class="st2">
				<defs>
					<path id="SVGID_22_" class="st2" d="M87.4,52.6l3.2,1.7c0.1,0.1,0.2,0.2,0.2,0.5l-3.2-1.7C87.6,52.8,87.5,52.7,87.4,52.6z"/>
				</defs>
				<clipPath id="SVGID_23_">
					<use xlink:href="#SVGID_22_"  style="overflow:visible;"/>
				</clipPath>
				<g class="st39">
					<path class="st27" d="M90.8,54.9l-3.2-1.7c0-0.3-0.1-0.5-0.2-0.5l3.2,1.7C90.7,54.4,90.8,54.5,90.8,54.9"/>
				</g>
			</g>
			<g class="st2">
				<defs>
					<path id="SVGID_24_" class="st2" d="M79.9,71.6l-3.2-1.7c0,0,0.1,0,0.1,0c0.2,0,0.2,0,0.4-0.5l3.2,1.7
						c-0.2,0.5-0.2,0.5-0.4,0.5C80,71.6,79.9,71.6,79.9,71.6z"/>
				</defs>
				<clipPath id="SVGID_25_">
					<use xlink:href="#SVGID_24_"  style="overflow:visible;"/>
				</clipPath>
				<g class="st40">
					<polyline class="st11" points="79.9,71.6 76.7,69.9 76.7,69.9 79.9,71.6 79.9,71.6 					"/>
					<polyline class="st10" points="79.9,71.6 76.7,69.9 76.7,69.9 79.9,71.6 79.9,71.6 					"/>
					<polyline class="st9" points="79.9,71.6 76.7,69.9 76.7,69.9 79.9,71.6 79.9,71.6 					"/>
					<polyline class="st8" points="79.9,71.6 76.7,69.9 76.7,69.9 79.9,71.6 79.9,71.6 					"/>
					<path class="st7" d="M79.9,71.6l-3.2-1.7c0,0,0,0,0,0L79.9,71.6C79.9,71.6,79.9,71.6,79.9,71.6"/>
					<path class="st6" d="M79.9,71.6l-3.2-1.7c0,0,0,0,0,0L79.9,71.6C79.9,71.6,79.9,71.6,79.9,71.6"/>
					<path class="st5" d="M79.9,71.6l-3.2-1.7c0,0,0,0,0.1,0c0,0,0,0,0.1,0l3.2,1.7C80.1,71.6,80,71.6,79.9,71.6
						C80,71.6,80,71.6,79.9,71.6"/>
					<path class="st6" d="M80.1,71.6l-3.2-1.7c0,0,0,0,0,0L80.1,71.6C80.1,71.6,80.1,71.6,80.1,71.6"/>
					<path class="st7" d="M80.1,71.6l-3.2-1.7c0,0,0,0,0,0L80.1,71.6C80.1,71.6,80.1,71.6,80.1,71.6"/>
					<polyline class="st8" points="80.1,71.6 76.9,69.9 76.9,69.9 80.1,71.6 80.1,71.6 					"/>
					<polyline class="st9" points="80.1,71.6 76.9,69.9 77,69.9 80.1,71.6 80.1,71.6 					"/>
					<polyline class="st10" points="80.1,71.6 77,69.9 77,69.8 80.2,71.6 80.1,71.6 					"/>
					<polyline class="st11" points="80.2,71.6 77,69.8 77,69.8 80.2,71.6 80.2,71.6 					"/>
					<polyline class="st12" points="80.2,71.6 77,69.8 77,69.8 80.2,71.6 80.2,71.6 					"/>
					<polyline class="st13" points="80.2,71.6 77,69.8 77,69.8 80.2,71.6 80.2,71.6 					"/>
					<polyline class="st14" points="80.2,71.6 77,69.8 77,69.8 80.2,71.6 80.2,71.6 					"/>
					<polyline class="st15" points="80.2,71.6 77,69.8 77,69.8 80.2,71.6 80.2,71.6 					"/>
					<polyline class="st16" points="80.2,71.6 77,69.8 77,69.8 80.2,71.6 80.2,71.6 					"/>
					<polyline class="st17" points="80.2,71.6 77,69.8 77,69.8 80.2,71.5 80.2,71.6 					"/>
					<polyline class="st18" points="80.2,71.5 77,69.8 77,69.8 80.2,71.5 80.2,71.5 					"/>
					<polyline class="st19" points="80.2,71.5 77,69.8 77,69.8 80.2,71.5 80.2,71.5 					"/>
					<path class="st20" d="M80.2,71.5L77,69.8c0,0,0,0,0,0L80.2,71.5C80.2,71.5,80.2,71.5,80.2,71.5"/>
					<path class="st21" d="M80.2,71.5L77,69.8c0,0,0,0,0,0L80.2,71.5C80.2,71.5,80.2,71.5,80.2,71.5"/>
					<path class="st22" d="M80.2,71.5L77,69.8c0,0,0,0,0,0L80.2,71.5C80.2,71.5,80.2,71.5,80.2,71.5"/>
					<path class="st23" d="M80.2,71.5L77,69.7c0,0,0,0,0,0L80.2,71.5C80.2,71.4,80.2,71.5,80.2,71.5"/>
					<path class="st24" d="M80.3,71.4l-3.2-1.7c0,0,0,0,0-0.1L80.3,71.4C80.3,71.4,80.3,71.4,80.3,71.4"/>
					<path class="st25" d="M80.3,71.4l-3.2-1.7c0-0.1,0-0.1,0.1-0.2l3.2,1.7C80.3,71.2,80.3,71.3,80.3,71.4"/>
					<path class="st26" d="M80.4,71.1l-3.2-1.7c0,0,0,0,0,0L80.4,71.1C80.4,71.1,80.4,71.1,80.4,71.1"/>
				</g>
			</g>
			<g class="st2">
				<defs>
					<path id="SVGID_26_" class="st2" d="M90.9,47.8l3.2,1.7c-0.6-0.3-1.4-0.3-2.3-0.1l-3.2-1.7C89.5,47.6,90.3,47.5,90.9,47.8z"/>
				</defs>
				<clipPath id="SVGID_27_">
					<use xlink:href="#SVGID_26_"  style="overflow:visible;"/>
				</clipPath>
				<g class="st41">
					<path class="st5" d="M91.8,49.4l-3.2-1.7c0.4-0.1,0.8-0.1,1.2-0.1l3.2,1.7C92.7,49.3,92.3,49.4,91.8,49.4"/>
					<path class="st6" d="M93,49.3l-3.2-1.7c0.2,0,0.3,0,0.5,0l3.2,1.7C93.4,49.3,93.2,49.3,93,49.3"/>
					<path class="st7" d="M93.5,49.4l-3.2-1.7c0.1,0,0.1,0,0.2,0l3.2,1.7C93.6,49.4,93.6,49.4,93.5,49.4"/>
					<path class="st8" d="M93.7,49.4l-3.2-1.7c0.1,0,0.1,0,0.2,0l3.2,1.7C93.8,49.4,93.8,49.4,93.7,49.4"/>
					<path class="st9" d="M93.9,49.5l-3.2-1.7c0,0,0.1,0,0.1,0l3.2,1.7C93.9,49.5,93.9,49.5,93.9,49.5"/>
					<path class="st10" d="M94,49.5l-3.2-1.7c0,0,0.1,0,0.1,0l3.2,1.7C94,49.5,94,49.5,94,49.5"/>
					<path class="st11" d="M94.1,49.5l-3.2-1.7c0,0,0,0,0,0L94.1,49.5C94.1,49.6,94.1,49.6,94.1,49.5"/>
				</g>
			</g>
			<g>
				<polygon class="st36" points="90,49.7 86.8,48 88.6,47.7 91.8,49.4 				"/>
			</g>
			<g class="st2">
				<defs>
					<path id="SVGID_28_" class="st2" d="M77.5,75.8L74.3,74c-0.5-0.3-0.8-0.9-1.1-1.7l3.2,1.7C76.7,74.9,77,75.5,77.5,75.8z"/>
				</defs>
				<clipPath id="SVGID_29_">
					<use xlink:href="#SVGID_28_"  style="overflow:visible;"/>
				</clipPath>
				<g class="st42">
					<path class="st27" d="M77.5,75.8L74.3,74c-0.5-0.3-0.8-0.9-1.1-1.7l3.2,1.7C76.7,74.9,77,75.5,77.5,75.8"/>
				</g>
			</g>
			<g>
				<polygon class="st43" points="80.4,71.1 77.2,69.4 83,52.1 86.2,53.8 				"/>
			</g>
			<g class="st2">
				<defs>
					<path id="SVGID_30_" class="st2" d="M65.2,93.2L62,91.4c-0.3-0.1-0.4-0.5-0.4-0.9l3.2,1.7C64.8,92.7,64.9,93,65.2,93.2z"/>
				</defs>
				<clipPath id="SVGID_31_">
					<use xlink:href="#SVGID_30_"  style="overflow:visible;"/>
				</clipPath>
				<g class="st44">
					<path class="st27" d="M65.2,93.2L62,91.4c-0.3-0.1-0.4-0.5-0.4-0.9l3.2,1.7C64.8,92.7,64.9,93,65.2,93.2"/>
				</g>
			</g>
			<g class="st2">
				<defs>
					<path id="SVGID_32_" class="st2" d="M86.2,53.8L83,52.1c1.1-3.1,1.7-3.9,3.8-4.2l3.2,1.7C87.9,50,87.3,50.8,86.2,53.8z"/>
				</defs>
				<clipPath id="SVGID_33_">
					<use xlink:href="#SVGID_32_"  style="overflow:visible;"/>
				</clipPath>
				<g class="st45">
					<path class="st25" d="M86.2,53.8L83,52.1c0.1-0.3,0.2-0.6,0.3-0.9l3.2,1.7C86.4,53.2,86.3,53.5,86.2,53.8"/>
					<path class="st24" d="M86.5,53l-3.2-1.7c0.1-0.3,0.2-0.6,0.3-0.8l3.2,1.7C86.7,52.4,86.6,52.7,86.5,53"/>
					<path class="st23" d="M86.8,52.2l-3.2-1.7c0.1-0.1,0.1-0.3,0.2-0.4l3.2,1.7C87,51.9,86.9,52,86.8,52.2"/>
					<path class="st22" d="M87,51.8L83.8,50c0-0.1,0.1-0.2,0.1-0.3l3.2,1.7C87.1,51.6,87.1,51.7,87,51.8"/>
					<path class="st21" d="M87.2,51.5L84,49.8c0-0.1,0.1-0.1,0.1-0.2l3.2,1.7C87.3,51.4,87.2,51.4,87.2,51.5"/>
					<path class="st20" d="M87.3,51.3l-3.2-1.7c0-0.1,0.1-0.1,0.1-0.2l3.2,1.7C87.4,51.2,87.3,51.2,87.3,51.3"/>
					<path class="st19" d="M87.4,51.1l-3.2-1.7c0,0,0.1-0.1,0.1-0.1l3.2,1.7C87.5,51,87.4,51.1,87.4,51.1"/>
					<path class="st18" d="M87.5,51l-3.2-1.7c0,0,0.1-0.1,0.1-0.1l3.2,1.7C87.6,50.9,87.5,51,87.5,51"/>
					<path class="st17" d="M87.6,50.9l-3.2-1.7c0,0,0.1-0.1,0.1-0.1l3.2,1.7C87.6,50.8,87.6,50.8,87.6,50.9"/>
					<path class="st16" d="M87.7,50.8L84.5,49c0,0,0.1-0.1,0.1-0.1L87.7,50.8C87.7,50.7,87.7,50.7,87.7,50.8"/>
					<path class="st15" d="M87.7,50.7l-3.2-1.7c0,0,0.1-0.1,0.1-0.1L87.7,50.7C87.8,50.6,87.8,50.7,87.7,50.7"/>
					<path class="st14" d="M87.8,50.6l-3.2-1.7c0,0,0.1-0.1,0.1-0.1L87.8,50.6C87.9,50.5,87.9,50.6,87.8,50.6"/>
					<path class="st13" d="M87.9,50.5l-3.2-1.7c0,0,0.1-0.1,0.1-0.1L87.9,50.5C88,50.5,87.9,50.5,87.9,50.5"/>
					<path class="st12" d="M88,50.4l-3.2-1.7c0,0,0.1,0,0.1-0.1L88,50.4C88.1,50.4,88,50.4,88,50.4"/>
					<path class="st11" d="M88.1,50.4l-3.2-1.7c0,0,0.1,0,0.1-0.1L88.1,50.4C88.2,50.3,88.1,50.3,88.1,50.4"/>
					<path class="st10" d="M88.2,50.3L85,48.6c0,0,0.1-0.1,0.1-0.1l3.2,1.7C88.3,50.2,88.2,50.3,88.2,50.3"/>
					<path class="st9" d="M88.3,50.2l-3.2-1.7c0,0,0.1-0.1,0.1-0.1l3.2,1.7C88.4,50.2,88.3,50.2,88.3,50.2"/>
					<path class="st8" d="M88.4,50.2l-3.2-1.7c0.1,0,0.1-0.1,0.2-0.1l3.2,1.7C88.5,50.1,88.5,50.1,88.4,50.2"/>
					<path class="st7" d="M88.6,50.1l-3.2-1.7c0.1,0,0.2-0.1,0.2-0.1l3.2,1.7C88.7,50,88.7,50,88.6,50.1"/>
					<path class="st6" d="M88.8,50l-3.2-1.7c0.2-0.1,0.3-0.1,0.5-0.2l3.2,1.7C89.2,49.9,89,49.9,88.8,50"/>
					<path class="st5" d="M89.4,49.8l-3.2-1.7c0.2,0,0.4-0.1,0.6-0.1l3.2,1.7C89.8,49.7,89.5,49.8,89.4,49.8"/>
				</g>
			</g>
			<g>
				<polygon class="st46" points="76.4,74.1 73.2,72.3 67,56 70.2,57.8 				"/>
			</g>
			<g class="st2">
				<defs>
					<path id="SVGID_34_" class="st2" d="M66.7,55.5l3.2,1.7c0.1,0.1,0.2,0.2,0.3,0.5L67,56C66.9,55.7,66.8,55.6,66.7,55.5z"/>
				</defs>
				<clipPath id="SVGID_35_">
					<use xlink:href="#SVGID_34_"  style="overflow:visible;"/>
				</clipPath>
				<g class="st47">
					<path class="st27" d="M70.2,57.8L67,56c-0.1-0.3-0.2-0.4-0.3-0.5l3.2,1.7C70,57.3,70.1,57.5,70.2,57.8"/>
				</g>
			</g>
			<g class="st2">
				<defs>
					<path id="SVGID_36_" class="st2" d="M68.9,50.9l3.2,1.7c-0.5-0.3-1.1-0.3-2-0.2l-3.2-1.7C67.8,50.6,68.4,50.7,68.9,50.9z"/>
				</defs>
				<clipPath id="SVGID_37_">
					<use xlink:href="#SVGID_36_"  style="overflow:visible;"/>
				</clipPath>
				<g class="st48">
					<path class="st5" d="M70.1,52.5l-3.2-1.7c0.4,0,0.7-0.1,0.9-0.1l3.2,1.7C70.8,52.4,70.5,52.4,70.1,52.5"/>
					<path class="st6" d="M71.1,52.4l-3.2-1.7c0.2,0,0.3,0,0.4,0l3.2,1.7C71.4,52.4,71.2,52.4,71.1,52.4"/>
					<path class="st7" d="M71.5,52.4l-3.2-1.7c0.1,0,0.1,0,0.2,0l3.2,1.7C71.6,52.5,71.6,52.5,71.5,52.4"/>
					<path class="st8" d="M71.7,52.5l-3.2-1.7c0,0,0.1,0,0.1,0l3.2,1.7C71.8,52.5,71.8,52.5,71.7,52.5"/>
					<path class="st9" d="M71.9,52.5l-3.2-1.7c0,0,0.1,0,0.1,0l3.2,1.7C71.9,52.6,71.9,52.5,71.9,52.5"/>
					<path class="st10" d="M72,52.6l-3.2-1.7c0,0,0.1,0,0.1,0l3.2,1.7C72,52.6,72,52.6,72,52.6"/>
					<path class="st11" d="M72.1,52.6l-3.2-1.7c0,0,0,0,0.1,0L72.1,52.6C72.1,52.6,72.1,52.6,72.1,52.6"/>
				</g>
			</g>
			<g>
				<polygon class="st36" points="68.3,52.7 65.1,51 66.9,50.7 70.1,52.5 				"/>
			</g>
			<g>
				<polygon class="st3" points="64.8,92.3 61.6,90.6 61.7,55.3 64.9,57.1 				"/>
			</g>
			<g>
				<path class="st32" d="M91.8,49.4c2-0.3,3.4-0.3,3.4,3.4L95.2,88c0,0.6-0.3,1.1-0.9,1.2l-2.8,0.4c-0.4,0.1-0.8-0.2-0.8-0.8
					l0.1-33.9c0-0.5-0.2-0.6-0.4-0.5s-0.4,0.2-0.5,0.7l-6.2,18.1c-0.5,1.5-1.1,2.3-2.4,2.5l-2.6,0.4c-1.3,0.2-1.8-0.5-2.4-1.8
					l-6.2-16.3c-0.1-0.5-0.3-0.6-0.5-0.5c-0.2,0-0.4,0.1-0.4,0.6l-0.1,33.9c0,0.6-0.5,1-0.9,1l-2.8,0.4c-0.5,0.1-0.8-0.3-0.8-1
					l0.1-35.2c0-3.6,1.5-4,3.4-4.3l1.9-0.3c2.2-0.3,2.7,0.3,3.8,3.1l5.8,15.6c0.2,0.5,0.2,0.5,0.4,0.4c0.2,0,0.2,0,0.4-0.5l5.8-17.2
					c1.1-3.1,1.7-3.9,3.8-4.2L91.8,49.4z"/>
			</g>
			<g class="st2">
				<defs>
					<path id="SVGID_38_" class="st2" d="M64.9,57.1l-3.2-1.7c0-3.6,1.5-4,3.4-4.3l3.2,1.7C66.3,53,64.9,53.4,64.9,57.1z"/>
				</defs>
				<clipPath id="SVGID_39_">
					<use xlink:href="#SVGID_38_"  style="overflow:visible;"/>
				</clipPath>
				<g class="st49">
					<path class="st27" d="M64.9,57.1l-3.2-1.7c0-0.7,0.1-1.3,0.2-1.8l3.2,1.7C64.9,55.7,64.9,56.3,64.9,57.1"/>
					<path class="st26" d="M65,55.2l-3.2-1.7c0-0.1,0.1-0.2,0.1-0.4l3.2,1.7C65.1,55,65.1,55.1,65,55.2"/>
					<path class="st25" d="M65.1,54.9l-3.2-1.7c0-0.1,0-0.2,0.1-0.2l3.2,1.7C65.2,54.7,65.2,54.8,65.1,54.9"/>
					<path class="st24" d="M65.2,54.7L62,52.9c0-0.1,0-0.1,0.1-0.2l3.2,1.7C65.3,54.5,65.2,54.6,65.2,54.7"/>
					<path class="st23" d="M65.3,54.5l-3.2-1.7c0,0,0-0.1,0.1-0.1l3.2,1.7C65.3,54.4,65.3,54.4,65.3,54.5"/>
					<path class="st22" d="M65.3,54.3l-3.2-1.7c0,0,0-0.1,0.1-0.1l3.2,1.7C65.4,54.3,65.4,54.3,65.3,54.3"/>
					<path class="st21" d="M65.4,54.2l-3.2-1.7c0,0,0-0.1,0.1-0.1l3.2,1.7C65.4,54.2,65.4,54.2,65.4,54.2"/>
					<path class="st20" d="M65.5,54.1l-3.2-1.7c0,0,0-0.1,0.1-0.1L65.5,54.1C65.5,54.1,65.5,54.1,65.5,54.1"/>
					<path class="st19" d="M65.5,54l-3.2-1.7c0,0,0-0.1,0.1-0.1L65.5,54C65.6,54,65.5,54,65.5,54"/>
					<path class="st18" d="M65.6,54l-3.2-1.7c0,0,0-0.1,0.1-0.1L65.6,54C65.6,53.9,65.6,53.9,65.6,54"/>
					<path class="st17" d="M65.6,53.9l-3.2-1.7c0,0,0,0,0.1-0.1L65.6,53.9C65.7,53.8,65.7,53.9,65.6,53.9"/>
					<path class="st16" d="M65.7,53.8l-3.2-1.7c0,0,0,0,0.1-0.1L65.7,53.8C65.7,53.8,65.7,53.8,65.7,53.8"/>
					<path class="st15" d="M65.8,53.7L62.6,52c0,0,0,0,0.1-0.1L65.8,53.7C65.8,53.7,65.8,53.7,65.8,53.7"/>
					<path class="st14" d="M65.8,53.7l-3.2-1.7c0,0,0,0,0.1-0.1L65.8,53.7C65.9,53.6,65.8,53.6,65.8,53.7"/>
					<path class="st13" d="M65.9,53.6l-3.2-1.7c0,0,0,0,0.1-0.1L65.9,53.6C65.9,53.6,65.9,53.6,65.9,53.6"/>
					<path class="st12" d="M66,53.5l-3.2-1.7c0,0,0.1,0,0.1-0.1L66,53.5C66,53.5,66,53.5,66,53.5"/>
					<path class="st11" d="M66,53.5l-3.2-1.7c0,0,0.1,0,0.1-0.1L66,53.5C66.1,53.4,66.1,53.5,66,53.5"/>
					<path class="st10" d="M66.1,53.4l-3.2-1.7c0,0,0.1,0,0.1-0.1L66.1,53.4C66.2,53.4,66.2,53.4,66.1,53.4"/>
					<path class="st9" d="M66.2,53.3L63,51.6c0,0,0.1-0.1,0.1-0.1l3.2,1.7C66.3,53.3,66.3,53.3,66.2,53.3"/>
					<path class="st8" d="M66.4,53.3l-3.2-1.7c0.1,0,0.1-0.1,0.2-0.1l3.2,1.7C66.5,53.2,66.4,53.2,66.4,53.3"/>
					<path class="st7" d="M66.5,53.2l-3.2-1.7c0.1,0,0.2-0.1,0.2-0.1l3.2,1.7C66.7,53.1,66.6,53.1,66.5,53.2"/>
					<path class="st6" d="M66.8,53.1l-3.2-1.7c0.2-0.1,0.4-0.1,0.6-0.2l3.2,1.7C67.2,53,67,53,66.8,53.1"/>
					<path class="st5" d="M67.4,52.9l-3.2-1.7c0.3-0.1,0.6-0.1,0.9-0.2l3.2,1.7C68,52.8,67.7,52.8,67.4,52.9"/>
				</g>
			</g>
		</g>
	</g>
</g>
</svg>
