<svg xmlns="http://www.w3.org/2000/svg" viewBox="0 0 448 448" id="email-square-bisque">
<path fill="#FFE4C4" d="M412,412H36V36h376V412z"/>
<path fill="currentColor" d="M400,0H48C21.5,0,0,21.5,0,48v352c0,26.5,21.5,48,48,48h352c26.5,0,48-21.5,48-48V48C448,21.5,426.5,0,400,0z M178.1,230.1
	c-90.7-65.8-89.8-66-114.1-84.9V120c0-13.3,10.7-24,24-24h272c13.3,0,24,10.7,24,24v25.2c-24.4,19-23.4,19.1-114.1,84.9
	c-10.5,7.7-31.4,26.1-45.9,25.9C209.5,256.2,188.6,237.8,178.1,230.1z M384,185.8V328c0,13.3-10.7,24-24,24H88
	c-13.3,0-24-10.7-24-24V185.8c14,10.8,33.3,25.2,95.3,70.2c14.2,10.3,38,32.1,64.7,32c26.9,0.1,51-22,64.7-32
	C350.7,211,370,196.6,384,185.8z"/>
</svg>