<?xml version="1.0" encoding="utf-8"?>
<!-- Generator: Adobe Illustrator 25.2.1, SVG Export Plug-In . SVG Version: 6.00 Build 0)  -->
<svg version="1.1" id="Layer_1" xmlns="http://www.w3.org/2000/svg" xmlns:xlink="http://www.w3.org/1999/xlink" x="0px" y="0px"
	 viewBox="0 0 1667 2500" style="enable-background:new 0 0 1667 2500;" xml:space="preserve">
<style type="text/css">
	.st0{fill:#0ACF83;}
	.st1{fill:#A259FF;}
	.st2{fill:#F24E1E;}
	.st3{fill:#FF7262;}
	.st4{fill:#1ABCFE;}
</style>
<desc>Created using Figma</desc>
<path id="path0_fill" class="st0" d="M416.5,2498.7c230,0,416.7-186.7,416.7-416.7v-416.7H416.5c-230,0-416.7,186.7-416.7,416.7
	S186.5,2498.7,416.5,2498.7z"/>
<path id="path1_fill" class="st1" d="M-0.2,1250c0-230,186.7-416.7,416.7-416.7h416.7v833.3H416.5C186.5,1666.7-0.2,1480-0.2,1250z"
	/>
<path id="path1_fill_1_" class="st2" d="M0.2,416.7C0.2,186.7,186.8,0,416.8,0h416.7v833.3H416.8C186.8,833.3,0.2,646.7,0.2,416.7z"
	/>
<path id="path2_fill" class="st3" d="M833.2,0h416.7c230,0,416.7,186.7,416.7,416.7s-186.7,416.7-416.7,416.7H833.2V0z"/>
<path id="path3_fill" class="st4" d="M1666.2,1249.3c0,230-186.7,416.7-416.7,416.7s-416.7-186.7-416.7-416.7
	s186.7-416.7,416.7-416.7S1666.2,1019.3,1666.2,1249.3z"/>
</svg>
